<svg width="62" height="63" viewBox="0 0 62 63" fill="none" xmlns="http://www.w3.org/2000/svg">
<g filter="url(#filter0_d_56_1362)">
<circle cx="31" cy="28" r="25" fill="white"/>
</g>
<path fill-rule="evenodd" clip-rule="evenodd" d="M28.9404 17.5256C28.9404 20.0292 28.1326 20.7942 24.9057 21.3461C18.7852 22.3932 14.9576 25.3751 14.2073 29.6806C14.077 30.4289 14.0086 32.843 14.0432 35.4812L14.1023 40L15.0233 39.9574C16.4474 39.8915 17.5871 39.3662 18.4907 38.3588L19.3051 37.451L19.8761 37.8386C20.9907 38.5958 22.2629 38.9466 24.2591 39.0476C28.1242 39.2436 30.8671 38.1393 32.75 35.6294C33.9032 34.092 34.2329 32.9619 34.4728 29.723C34.683 26.885 34.8555 26.2067 35.5545 25.4711C36.1555 24.8384 36.5266 24.6611 37.7114 24.4406C38.9799 24.2046 39.9789 24.4605 40.9054 25.2588C42.0856 26.2756 42.2363 27.0014 42.2977 31.9665C42.3476 36.0068 42.3902 36.4661 42.7956 37.3335C43.4442 38.7215 44.1861 39.0946 46.2984 39.0954L48 39.0962L47.932 32.7197C47.8674 26.654 47.8416 26.2881 47.4028 25.2146C46.3948 22.7495 44.5158 20.9219 42.0404 19.9989C40.1645 19.2993 36.7845 19.2638 35.0287 19.925C34.7027 20.0477 34.6709 19.8796 34.6709 18.0299V16H31.8057L28.9404 16V17.5256ZM14 21.427V25.7004L14.5827 24.9109C15.4979 23.6714 16.966 22.5152 18.407 21.899C19.6784 21.3555 19.7304 21.3053 19.7261 20.6247C19.7236 20.235 19.5464 19.5375 19.3321 19.0746C18.7948 17.9132 17.6798 17.3691 15.5861 17.2464L14 17.1534V21.427ZM27.0984 26.1798C26.2542 26.3417 25.0733 26.5652 24.4742 26.6769C22.294 27.083 20.8136 29.246 21.3498 31.2425C21.7792 32.842 22.8304 33.7943 24.5741 34.1635C26.0456 34.475 28.2711 33.2039 28.7073 31.8027C29.0159 30.8113 29.1483 25.836 28.8655 25.8635C28.7377 25.8758 27.9426 26.0181 27.0984 26.1798Z" fill="url(#paint0_linear_56_1362)"/>
<defs>
<filter id="filter0_d_56_1362" x="0" y="0.5" width="62" height="62" filterUnits="userSpaceOnUse" color-interpolation-filters="sRGB">
<feFlood flood-opacity="0" result="BackgroundImageFix"/>
<feColorMatrix in="SourceAlpha" type="matrix" values="0 0 0 0 0 0 0 0 0 0 0 0 0 0 0 0 0 0 127 0" result="hardAlpha"/>
<feOffset dy="3.5"/>
<feGaussianBlur stdDeviation="3"/>
<feComposite in2="hardAlpha" operator="out"/>
<feColorMatrix type="matrix" values="0 0 0 0 0 0 0 0 0 0 0 0 0 0 0 0 0 0 0.2 0"/>
<feBlend mode="normal" in2="BackgroundImageFix" result="effect1_dropShadow_56_1362"/>
<feBlend mode="normal" in="SourceGraphic" in2="effect1_dropShadow_56_1362" result="shape"/>
</filter>
<linearGradient id="paint0_linear_56_1362" x1="31" y1="22" x2="31" y2="54" gradientUnits="userSpaceOnUse">
<stop stop-color="#51CDFF"/>
<stop offset="1" stop-color="#1070B3"/>
</linearGradient>
</defs>
</svg>
