<svg width="62" height="63" viewBox="0 0 62 63" fill="none" xmlns="http://www.w3.org/2000/svg">
<g filter="url(#filter0_d_22_1882)">
<circle cx="31" cy="28" r="25" fill="white"/>
</g>
<g clip-path="url(#clip0_22_1882)">
<path d="M31 28C31 26.5855 31.5795 25.229 32.6109 24.2288C33.6424 23.2286 35.0413 22.6667 36.5 22.6667C37.9587 22.6667 39.3576 23.2286 40.3891 24.2288C41.4205 25.229 42 26.5855 42 28C42 29.4145 41.4205 30.7711 40.3891 31.7713C39.3576 32.7714 37.9587 33.3334 36.5 33.3334C35.0413 33.3334 33.6424 32.7714 32.6109 31.7713C31.5795 30.7711 31 29.4145 31 28Z" fill="#1ABCFE"/>
<path d="M20 38.6666C20 37.2522 20.5795 35.8956 21.6109 34.8954C22.6424 33.8952 24.0413 33.3333 25.5 33.3333H31V38.6666C31 40.0811 30.4205 41.4377 29.3891 42.4379C28.3576 43.4381 26.9587 44 25.5 44C24.0413 44 22.6424 43.4381 21.6109 42.4379C20.5795 41.4377 20 40.0811 20 38.6666V38.6666Z" fill="#0ACF83"/>
<path d="M31 12V22.6667H36.5C37.9587 22.6667 39.3576 22.1048 40.3891 21.1046C41.4205 20.1044 42 18.7478 42 17.3333C42 15.9188 41.4205 14.5623 40.3891 13.5621C39.3576 12.5619 37.9587 12 36.5 12H31Z" fill="#FF7262"/>
<path d="M20 17.3333C20 18.7478 20.5795 20.1044 21.6109 21.1046C22.6424 22.1048 24.0413 22.6667 25.5 22.6667H31V12H25.5C24.0413 12 22.6424 12.5619 21.6109 13.5621C20.5795 14.5623 20 15.9188 20 17.3333V17.3333Z" fill="#F24E1E"/>
<path d="M20 28C20 29.4145 20.5795 30.7711 21.6109 31.7713C22.6424 32.7714 24.0413 33.3334 25.5 33.3334H31V22.6667H25.5C24.0413 22.6667 22.6424 23.2286 21.6109 24.2288C20.5795 25.229 20 26.5855 20 28V28Z" fill="#A259FF"/>
</g>
<defs>
<filter id="filter0_d_22_1882" x="0" y="0.5" width="62" height="62" filterUnits="userSpaceOnUse" color-interpolation-filters="sRGB">
<feFlood flood-opacity="0" result="BackgroundImageFix"/>
<feColorMatrix in="SourceAlpha" type="matrix" values="0 0 0 0 0 0 0 0 0 0 0 0 0 0 0 0 0 0 127 0" result="hardAlpha"/>
<feOffset dy="3.5"/>
<feGaussianBlur stdDeviation="3"/>
<feComposite in2="hardAlpha" operator="out"/>
<feColorMatrix type="matrix" values="0 0 0 0 0 0 0 0 0 0 0 0 0 0 0 0 0 0 0.2 0"/>
<feBlend mode="normal" in2="BackgroundImageFix" result="effect1_dropShadow_22_1882"/>
<feBlend mode="normal" in="SourceGraphic" in2="effect1_dropShadow_22_1882" result="shape"/>
</filter>
<clipPath id="clip0_22_1882">
<rect width="22" height="32" fill="white" transform="translate(20 12)"/>
</clipPath>
</defs>
</svg>
